<?xml version="1.0" encoding="UTF-8"?>
<svg id="Calque_1" data-name="Calque 1" xmlns="http://www.w3.org/2000/svg" viewBox="0 0 246.05 59.07">
  <defs>
    <style>
      .cls-1 {
        fill: #1d1d1b;
      }
    </style>
  </defs>
  <circle class="cls-1" cx="98.65" cy="1.13" r="1.13"/>
  <circle class="cls-1" cx="98.65" cy="10.6" r="1.13"/>
  <circle class="cls-1" cx="98.65" cy="20.07" r="1.13"/>
  <circle class="cls-1" cx="98.65" cy="29.54" r="1.13"/>
  <circle class="cls-1" cx="147.4" cy="1.13" r="1.13"/>
  <circle class="cls-1" cx="147.4" cy="10.6" r="1.13"/>
  <circle class="cls-1" cx="147.4" cy="20.07" r="1.13"/>
  <circle class="cls-1" cx="147.4" cy="29.54" r="1.13"/>
  <circle class="cls-1" cx="1.13" cy="1.36" r="1.13"/>
  <circle class="cls-1" cx="1.13" cy="10.83" r="1.13"/>
  <circle class="cls-1" cx="49.89" cy="1.36" r="1.13"/>
  <circle class="cls-1" cx="49.89" cy="10.83" r="1.13"/>
  <circle class="cls-1" cx="196.16" cy="1.13" r="1.13"/>
  <circle class="cls-1" cx="196.16" cy="10.6" r="1.13"/>
  <circle class="cls-1" cx="196.16" cy="20.07" r="1.13"/>
  <circle class="cls-1" cx="196.16" cy="29.54" r="1.13"/>
  <circle class="cls-1" cx="196.16" cy="39" r="1.13"/>
  <circle class="cls-1" cx="196.16" cy="48.47" r="1.13"/>
  <circle class="cls-1" cx="196.16" cy="57.94" r="1.13"/>
  <circle class="cls-1" cx="244.91" cy="1.13" r="1.13"/>
  <circle class="cls-1" cx="244.91" cy="10.6" r="1.13"/>
  <circle class="cls-1" cx="244.91" cy="20.07" r="1.13"/>
  <circle class="cls-1" cx="244.91" cy="29.54" r="1.13"/>
  <circle class="cls-1" cx="244.91" cy="39" r="1.13"/>
  <circle class="cls-1" cx="244.91" cy="48.47" r="1.13"/>
  <circle class="cls-1" cx="244.91" cy="57.94" r="1.13"/>
</svg>