<?xml version="1.0" encoding="UTF-8"?>
<svg id="Calque_1" data-name="Calque 1" xmlns="http://www.w3.org/2000/svg" viewBox="0 0 431.04 347.96">
  <g>
    <circle cx="117.86" cy="298.07" r="1.13" fill="#1d1d1b"/>
    <circle cx="127.33" cy="298.07" r="1.13" fill="#1d1d1b"/>
    <circle cx="136.8" cy="298.07" r="1.13" fill="#1d1d1b"/>
    <circle cx="146.27" cy="298.07" r="1.13" fill="#1d1d1b"/>
    <circle cx="127.33" cy="346.83" r="1.13" fill="#1d1d1b"/>
    <circle cx="136.8" cy="346.83" r="1.13" fill="#1d1d1b"/>
    <circle cx="234.31" cy="192.51" r="1.13" fill="#1d1d1b"/>
    <circle cx="243.78" cy="192.51" r="1.13" fill="#1d1d1b"/>
    <circle cx="166.62" cy="192.51" r="1.13" fill="#1d1d1b"/>
    <circle cx="176.09" cy="192.51" r="1.13" fill="#1d1d1b"/>
    <circle cx="185.56" cy="192.51" r="1.13" fill="#1d1d1b"/>
    <circle cx="195.02" cy="241.27" r="1.13" fill="#1d1d1b"/>
    <circle cx="195.02" cy="250.73" r="1.13" fill="#1d1d1b"/>
    <circle cx="195.02" cy="260.2" r="1.13" fill="#1d1d1b"/>
    <circle cx="195.02" cy="269.67" r="1.13" fill="#1d1d1b"/>
    <circle cx="195.02" cy="279.14" r="1.13" fill="#1d1d1b"/>
    <circle cx="195.02" cy="288.6" r="1.13" fill="#1d1d1b"/>
    <circle cx="195.02" cy="298.07" r="1.13" fill="#1d1d1b"/>
    <circle cx="243.78" cy="241.27" r="1.13" fill="#1d1d1b"/>
    <circle cx="243.78" cy="250.73" r="1.13" fill="#1d1d1b"/>
    <circle cx="243.78" cy="260.2" r="1.13" fill="#1d1d1b"/>
    <circle cx="243.78" cy="269.67" r="1.13" fill="#1d1d1b"/>
    <circle cx="243.78" cy="279.14" r="1.13" fill="#1d1d1b"/>
    <circle cx="243.78" cy="288.6" r="1.13" fill="#1d1d1b"/>
    <circle cx="243.78" cy="298.07" r="1.13" fill="#1d1d1b"/>
  </g>
  <g>
    <circle cx="98.65" cy="36.38" r="1.13" fill="#1d1d1b"/>
    <circle cx="98.65" cy="45.85" r="1.13" fill="#1d1d1b"/>
    <circle cx="98.65" cy="55.32" r="1.13" fill="#1d1d1b"/>
    <circle cx="98.65" cy="64.79" r="1.13" fill="#1d1d1b"/>
    <circle cx="147.4" cy="36.38" r="1.13" fill="#1d1d1b"/>
    <circle cx="147.4" cy="45.85" r="1.13" fill="#1d1d1b"/>
    <circle cx="147.4" cy="55.32" r="1.13" fill="#1d1d1b"/>
    <circle cx="147.4" cy="64.79" r="1.13" fill="#1d1d1b"/>
    <circle cx="1.13" cy="36.61" r="1.13" fill="#1d1d1b"/>
    <circle cx="1.13" cy="46.08" r="1.13" fill="#1d1d1b"/>
    <circle cx="49.89" cy="36.61" r="1.13" fill="#1d1d1b"/>
    <circle cx="49.89" cy="46.08" r="1.13" fill="#1d1d1b"/>
    <circle cx="196.16" cy="36.38" r="1.13" fill="#1d1d1b"/>
    <circle cx="196.16" cy="45.85" r="1.13" fill="#1d1d1b"/>
    <circle cx="196.16" cy="55.32" r="1.13" fill="#1d1d1b"/>
    <circle cx="196.16" cy="64.79" r="1.13" fill="#1d1d1b"/>
    <circle cx="196.16" cy="74.26" r="1.13" fill="#1d1d1b"/>
    <circle cx="196.16" cy="83.72" r="1.13" fill="#1d1d1b"/>
    <circle cx="196.16" cy="93.19" r="1.13" fill="#1d1d1b"/>
    <circle cx="244.91" cy="36.38" r="1.13" fill="#1d1d1b"/>
    <circle cx="244.91" cy="45.85" r="1.13" fill="#1d1d1b"/>
    <circle cx="244.91" cy="55.32" r="1.13" fill="#1d1d1b"/>
    <circle cx="244.91" cy="64.79" r="1.13" fill="#1d1d1b"/>
    <circle cx="244.91" cy="74.26" r="1.13" fill="#1d1d1b"/>
    <circle cx="244.91" cy="83.72" r="1.13" fill="#1d1d1b"/>
    <circle cx="244.91" cy="93.19" r="1.13" fill="#1d1d1b"/>
  </g>
</svg>